<svg xmlns="http://www.w3.org/2000/svg" viewBox="0 0 64 64">
  <!-- Cream circle background for visibility on dark themes -->
  <circle cx="32" cy="32" r="30" fill="#FDF8F5"/>
  <!-- Olive green palm tree icon -->
  <g fill="#9A8B4F" transform="translate(16, 8) scale(0.5)">
    <!-- Palm trunk -->
    <path d="M32 35 L30 60 Q32 62 34 60 L32 35Z"/>
    <!-- Palm leaves -->
    <path d="M32 35 Q20 25 12 30 Q22 22 32 28 Q42 22 52 30 Q44 25 32 35Z"/>
    <path d="M32 28 Q18 15 8 22 Q20 12 32 20 Q44 12 56 22 Q46 15 32 28Z"/>
    <path d="M32 20 Q22 5 15 12 Q24 4 32 12 Q40 4 49 12 Q42 5 32 20Z"/>
  </g>
</svg>